<mxfile host="65bd71144e">
    <diagram id="6ObwSw7GGpYElaVP92g4" name="Page-1">
        <mxGraphModel dx="1162" dy="991" grid="1" gridSize="10" guides="1" tooltips="1" connect="1" arrows="1" fold="1" page="1" pageScale="1" pageWidth="827" pageHeight="1169" background="#FFFDFD" math="0" shadow="0">
            <root>
                <mxCell id="0"/>
                <mxCell id="1" parent="0"/>
                <mxCell id="138" value="CMAF Fragment 1" style="rounded=0;whiteSpace=wrap;html=1;strokeColor=#2D2926;fillColor=none;strokeWidth=4;fontFamily=Open Sans;labelBackgroundColor=none;labelPosition=center;verticalLabelPosition=bottom;align=center;verticalAlign=top;fontSize=27;fontStyle=0" parent="1" vertex="1">
                    <mxGeometry x="280" y="40" width="240" height="105" as="geometry"/>
                </mxCell>
                <mxCell id="141" value="CMAF Fragment n" style="rounded=0;whiteSpace=wrap;html=1;strokeColor=#2D2926;fillColor=none;strokeWidth=4;fontFamily=Open Sans;labelBackgroundColor=none;labelPosition=center;verticalLabelPosition=bottom;align=center;verticalAlign=top;fontSize=27;fontStyle=0" parent="1" vertex="1">
                    <mxGeometry x="550" y="40" width="240" height="105" as="geometry"/>
                </mxCell>
                <mxCell id="142" value="&lt;span style=&quot;font-family: &amp;quot;Open Sans&amp;quot;; font-size: 28px; font-weight: 700; text-align: right;&quot;&gt;â€¦&lt;/span&gt;" style="text;html=1;strokeColor=none;fillColor=none;align=center;verticalAlign=middle;whiteSpace=wrap;rounded=0;labelBackgroundColor=none;" parent="1" vertex="1">
                    <mxGeometry x="520" y="70" width="30" height="30" as="geometry"/>
                </mxCell>
                <mxCell id="143" value="" style="rounded=0;whiteSpace=wrap;html=1;labelPosition=center;verticalLabelPosition=top;align=center;verticalAlign=bottom;strokeColor=none;fillColor=#A72B2A;fontFamily=Open Sans;labelBackgroundColor=none;" parent="1" vertex="1">
                    <mxGeometry x="345" y="45" width="10" height="95" as="geometry"/>
                </mxCell>
                <mxCell id="144" value="" style="rounded=0;whiteSpace=wrap;html=1;labelPosition=center;verticalLabelPosition=top;align=center;verticalAlign=bottom;strokeColor=none;fillColor=#E4D5D3;fontFamily=Open Sans;labelBackgroundColor=none;" parent="1" vertex="1">
                    <mxGeometry x="365" y="45" width="10" height="95" as="geometry"/>
                </mxCell>
                <mxCell id="145" value="" style="rounded=0;whiteSpace=wrap;html=1;labelPosition=center;verticalLabelPosition=top;align=center;verticalAlign=bottom;strokeColor=none;fillColor=#E4D5D3;fontFamily=Open Sans;labelBackgroundColor=none;" parent="1" vertex="1">
                    <mxGeometry x="385" y="45" width="10" height="95" as="geometry"/>
                </mxCell>
                <mxCell id="146" value="" style="rounded=0;whiteSpace=wrap;html=1;labelPosition=center;verticalLabelPosition=top;align=center;verticalAlign=bottom;strokeColor=none;fillColor=#E4D5D3;fontFamily=Open Sans;labelBackgroundColor=none;" parent="1" vertex="1">
                    <mxGeometry x="405" y="45" width="10" height="95" as="geometry"/>
                </mxCell>
                <mxCell id="147" value="" style="rounded=0;whiteSpace=wrap;html=1;labelPosition=center;verticalLabelPosition=top;align=center;verticalAlign=bottom;strokeColor=none;fillColor=#E4D5D3;fontFamily=Open Sans;labelBackgroundColor=none;" parent="1" vertex="1">
                    <mxGeometry x="425" y="45" width="10" height="95" as="geometry"/>
                </mxCell>
                <mxCell id="148" value="" style="rounded=0;whiteSpace=wrap;html=1;labelPosition=center;verticalLabelPosition=top;align=center;verticalAlign=bottom;strokeColor=none;fillColor=#E4D5D3;fontFamily=Open Sans;labelBackgroundColor=none;" parent="1" vertex="1">
                    <mxGeometry x="445" y="45" width="10" height="95" as="geometry"/>
                </mxCell>
                <mxCell id="149" value="" style="rounded=0;whiteSpace=wrap;html=1;labelPosition=center;verticalLabelPosition=top;align=center;verticalAlign=bottom;strokeColor=none;fillColor=#E4D5D3;fontFamily=Open Sans;labelBackgroundColor=none;" parent="1" vertex="1">
                    <mxGeometry x="465" y="45" width="10" height="95" as="geometry"/>
                </mxCell>
                <mxCell id="150" value="" style="rounded=0;whiteSpace=wrap;html=1;labelPosition=center;verticalLabelPosition=top;align=center;verticalAlign=bottom;strokeColor=none;fillColor=#E4D5D3;fontFamily=Open Sans;labelBackgroundColor=none;" parent="1" vertex="1">
                    <mxGeometry x="485" y="45" width="10" height="95" as="geometry"/>
                </mxCell>
                <mxCell id="151" value="" style="rounded=0;whiteSpace=wrap;html=1;labelPosition=center;verticalLabelPosition=top;align=center;verticalAlign=bottom;strokeColor=none;fillColor=#E4D5D3;fontFamily=Open Sans;labelBackgroundColor=none;" parent="1" vertex="1">
                    <mxGeometry x="505" y="45" width="10" height="95" as="geometry"/>
                </mxCell>
                <mxCell id="152" value="" style="rounded=0;whiteSpace=wrap;html=1;labelPosition=center;verticalLabelPosition=top;align=center;verticalAlign=bottom;strokeColor=none;fillColor=#A72B2A;fontFamily=Open Sans;labelBackgroundColor=none;" parent="1" vertex="1">
                    <mxGeometry x="615" y="45" width="10" height="95" as="geometry"/>
                </mxCell>
                <mxCell id="153" value="" style="rounded=0;whiteSpace=wrap;html=1;labelPosition=center;verticalLabelPosition=top;align=center;verticalAlign=bottom;strokeColor=none;fillColor=#E4D5D3;fontFamily=Open Sans;labelBackgroundColor=none;" parent="1" vertex="1">
                    <mxGeometry x="635" y="45" width="10" height="95" as="geometry"/>
                </mxCell>
                <mxCell id="154" value="" style="rounded=0;whiteSpace=wrap;html=1;labelPosition=center;verticalLabelPosition=top;align=center;verticalAlign=bottom;strokeColor=none;fillColor=#E4D5D3;fontFamily=Open Sans;labelBackgroundColor=none;" parent="1" vertex="1">
                    <mxGeometry x="655" y="45" width="10" height="95" as="geometry"/>
                </mxCell>
                <mxCell id="155" value="" style="rounded=0;whiteSpace=wrap;html=1;labelPosition=center;verticalLabelPosition=top;align=center;verticalAlign=bottom;strokeColor=none;fillColor=#E4D5D3;fontFamily=Open Sans;labelBackgroundColor=none;" parent="1" vertex="1">
                    <mxGeometry x="675" y="45" width="10" height="95" as="geometry"/>
                </mxCell>
                <mxCell id="156" value="" style="rounded=0;whiteSpace=wrap;html=1;labelPosition=center;verticalLabelPosition=top;align=center;verticalAlign=bottom;strokeColor=none;fillColor=#E4D5D3;fontFamily=Open Sans;labelBackgroundColor=none;" parent="1" vertex="1">
                    <mxGeometry x="695" y="45" width="10" height="95" as="geometry"/>
                </mxCell>
                <mxCell id="157" value="" style="rounded=0;whiteSpace=wrap;html=1;labelPosition=center;verticalLabelPosition=top;align=center;verticalAlign=bottom;strokeColor=none;fillColor=#E4D5D3;fontFamily=Open Sans;labelBackgroundColor=none;" parent="1" vertex="1">
                    <mxGeometry x="715" y="45" width="10" height="95" as="geometry"/>
                </mxCell>
                <mxCell id="158" value="" style="rounded=0;whiteSpace=wrap;html=1;labelPosition=center;verticalLabelPosition=top;align=center;verticalAlign=bottom;strokeColor=none;fillColor=#E4D5D3;fontFamily=Open Sans;labelBackgroundColor=none;" parent="1" vertex="1">
                    <mxGeometry x="735" y="45" width="10" height="95" as="geometry"/>
                </mxCell>
                <mxCell id="159" value="" style="rounded=0;whiteSpace=wrap;html=1;labelPosition=center;verticalLabelPosition=top;align=center;verticalAlign=bottom;strokeColor=none;fillColor=#E4D5D3;fontFamily=Open Sans;labelBackgroundColor=none;" parent="1" vertex="1">
                    <mxGeometry x="755" y="45" width="10" height="95" as="geometry"/>
                </mxCell>
                <mxCell id="160" value="" style="rounded=0;whiteSpace=wrap;html=1;labelPosition=center;verticalLabelPosition=top;align=center;verticalAlign=bottom;strokeColor=none;fillColor=#E4D5D3;fontFamily=Open Sans;labelBackgroundColor=none;" parent="1" vertex="1">
                    <mxGeometry x="775" y="45" width="10" height="95" as="geometry"/>
                </mxCell>
                <mxCell id="163" value="" style="rounded=0;whiteSpace=wrap;html=1;strokeColor=#2D2926;fillColor=none;strokeWidth=2;fontFamily=Open Sans;labelBackgroundColor=none;labelPosition=center;verticalLabelPosition=bottom;align=center;verticalAlign=top;fontSize=27;fontStyle=0;dashed=1;" parent="1" vertex="1">
                    <mxGeometry x="340" y="40" width="80" height="105" as="geometry"/>
                </mxCell>
                <mxCell id="164" value="" style="rounded=0;whiteSpace=wrap;html=1;strokeColor=#2D2926;fillColor=none;strokeWidth=2;fontFamily=Open Sans;labelBackgroundColor=none;labelPosition=center;verticalLabelPosition=bottom;align=center;verticalAlign=top;fontSize=27;fontStyle=0;dashed=1;" parent="1" vertex="1">
                    <mxGeometry x="420" y="40" width="80" height="105" as="geometry"/>
                </mxCell>
                <mxCell id="165" value="" style="rounded=0;whiteSpace=wrap;html=1;strokeColor=#2D2926;fillColor=none;strokeWidth=2;fontFamily=Open Sans;labelBackgroundColor=none;labelPosition=center;verticalLabelPosition=bottom;align=center;verticalAlign=top;fontSize=27;fontStyle=0;dashed=1;" parent="1" vertex="1">
                    <mxGeometry x="610" y="40" width="80" height="105" as="geometry"/>
                </mxCell>
                <mxCell id="166" value="" style="rounded=0;whiteSpace=wrap;html=1;strokeColor=#2D2926;fillColor=none;strokeWidth=2;fontFamily=Open Sans;labelBackgroundColor=none;labelPosition=center;verticalLabelPosition=bottom;align=center;verticalAlign=top;fontSize=27;fontStyle=0;dashed=1;" parent="1" vertex="1">
                    <mxGeometry x="690" y="40" width="80" height="105" as="geometry"/>
                </mxCell>
                <mxCell id="167" value="CMAF Header" style="rounded=0;whiteSpace=wrap;html=1;strokeColor=#2D2926;fillColor=none;strokeWidth=4;fontFamily=Open Sans;labelBackgroundColor=none;labelPosition=center;verticalLabelPosition=bottom;align=center;verticalAlign=top;fontSize=27;fontStyle=0" vertex="1" parent="1">
                    <mxGeometry x="40" y="40" width="240" height="105" as="geometry"/>
                </mxCell>
            </root>
        </mxGraphModel>
    </diagram>
</mxfile>
